Input #0, mov,mp4,m4a,3gp,3g2,mj2, from 'src/content/videos/2026-07-15-chatgpt-work-content-factory/chatgpt-work-content-factory-mvp.mp4':
  Metadata:
    major_brand     : isom
    minor_version   : 512
    compatible_brands: isomiso2avc1mp41
    encoder         : Lavf61.7.100
    comment         : Made with Remotion 4.0.427
  Duration: 00:00:45.06, start: 0.000000, bitrate: 1223 kb/s
  Stream #0:0[0x1](und): Video: h264 (High) (avc1 / 0x31637661), yuvj420p(pc, bt470bg/unknown/unknown, progressive), 1080x1920 [SAR 1:1 DAR 9:16], 897 kb/s, 30 fps, 30 tbr, 90k tbn (default)
    Metadata:
      handler_name    : VideoHandler
      encoder         : Lavc61.19.100 libx264
    Side data:
      ICC Profile: (456 bytes)
  Stream #0:1[0x2](und): Audio: aac (LC) (mp4a / 0x6134706D), 48000 Hz, stereo, fltp, 317 kb/s (default)
    Metadata:
      handler_name    : SoundHandler
Stream mapping:
  Stream #0:0 -> #0:0 (h264 (native) -> wrapped_avframe (native))
  Stream #0:1 -> #0:1 (aac (native) -> pcm_s16le (native))
Press [q] to stop, [?] for help
Output #0, null, to 'pipe:':
  Metadata:
    major_brand     : isom
    minor_version   : 512
    compatible_brands: isomiso2avc1mp41
    comment         : Made with Remotion 4.0.427
    encoder         : Lavf62.12.101
  Stream #0:0(und): Video: wrapped_avframe, yuvj420p(pc, bt470bg/unknown/unknown, progressive), 1080x1920 [SAR 1:1 DAR 9:16], q=2-31, 200 kb/s, 30 fps, 30 tbn (default)
    Metadata:
      encoder         : Lavc62.28.101 wrapped_avframe
      handler_name    : VideoHandler
    Side data:
      ICC Profile: (456 bytes)
  Stream #0:1(und): Audio: pcm_s16le, 48000 Hz, stereo, s16, 1536 kb/s (default)
    Metadata:
      encoder         : Lavc62.28.101 pcm_s16le
      handler_name    : SoundHandler
[Parsed_silencedetect_0 @ 0xbfcc2df80] silence_start: 0
[Parsed_silencedetect_0 @ 0xbfcc2df80] silence_end: 1.038708 | silence_duration: 1.038708
[out#0/null @ 0xbfcc2c3c0] video:559KiB audio:8448KiB subtitle:0KiB other streams:0KiB global headers:0KiB muxing overhead: unknown
frame= 1350 fps=0.0 q=-0.0 Lsize=N/A time=00:00:45.00 bitrate=N/A speed= 167x elapsed=0:00:00.26    
